<svg width="1420" height="680" viewBox="0 0 1420 680" fill="none" xmlns="http://www.w3.org/2000/svg">
<g clip-path="url(#clip0_36_29)">
<mask id="mask0_36_29" style="mask-type:luminance" maskUnits="userSpaceOnUse" x="555" y="185" width="310" height="311">
<path d="M710 185C740.656 185 770.624 194.091 796.113 211.122C821.603 228.154 841.47 252.362 853.201 280.684C864.933 309.007 868.002 340.172 862.022 370.239C856.041 400.306 841.279 427.924 819.602 449.602C797.924 471.279 770.306 486.041 740.239 492.022C710.172 498.002 679.007 494.933 650.684 483.201C622.362 471.47 598.154 451.603 581.122 426.113C564.091 400.624 555 370.656 555 340C555 298.891 571.33 259.467 600.398 230.398C629.467 201.33 668.891 185 710 185Z" fill="white"/>
</mask>
<g mask="url(#mask0_36_29)">
<rect x="707.337" y="247.852" width="209.863" height="174.708" fill="#E5727B"/>
<path d="M694.553 299.927L761.027 284.072C761.027 284.072 805.583 309.153 837.089 311.342C864.107 313.219 905.481 299.927 905.481 299.927V473.694H694.553V299.927Z" fill="#C4646F"/>
<path d="M694.553 361.665L770.615 341.598C770.615 341.598 811.267 357.797 838.368 361.665C864.382 365.378 905.481 361.665 905.481 361.665V565.309H694.553V361.665Z" fill="#AC536B"/>
<path d="M651.941 387.232L728.003 367.165C728.003 367.165 768.655 383.364 795.756 387.232C821.77 390.945 862.869 387.232 862.869 387.232V590.876H651.941V387.232Z" fill="#894566"/>
<path d="M630.636 406.407L706.698 386.34C706.698 386.34 747.35 402.539 774.45 406.407C800.464 410.121 841.564 406.407 841.564 406.407V610.052H630.636V406.407Z" fill="#643759"/>
<mask id="mask1_36_29" style="mask-type:alpha" maskUnits="userSpaceOnUse" x="702" y="277" width="123" height="123">
<circle cx="763.5" cy="338.5" r="61.5" fill="#FF782A"/>
</mask>
<g mask="url(#mask1_36_29)">
<circle cx="763.5" cy="338.5" r="61.5" fill="#F77E4A"/>
<circle cx="763.5" cy="317.878" r="61.5" fill="#FFA454"/>
</g>
<path d="M1043.87 202.274L1058.52 387.795L1028.42 493.098C1028.42 493.098 1037.72 368.646 1008.11 311.14C973.184 243.31 900.116 222.126 811.612 258.488C732.885 290.829 699.263 348.986 706.2 420.817C701.732 465.034 778.983 565.945 775.794 584.281C765.926 641.006 647.94 608.766 647.94 608.766L541.151 580.152L669.297 101.907L1043.87 202.274Z" fill="#3F425E"/>
<path d="M894.418 64.732L999.864 218.075L1026.45 324.316C1026.45 324.316 972.281 211.888 917.885 176.891C853.721 135.613 779.85 153.801 721.385 229.544C669.375 296.916 669.337 364.092 711.26 422.83C729.499 463.358 846.855 512.124 853.261 529.598C873.078 583.657 754.779 614.729 754.779 614.729L647.991 643.343L519.845 165.098L894.418 64.732Z" fill="#3B557B"/>
<path d="M655.978 126.156L787.722 170.358L851.267 221.833C851.267 221.833 768.484 179.043 720.314 182.565C663.496 186.722 627.569 230.726 626.664 302.167C625.856 365.715 655.978 405.825 707.357 422.07C736.429 438.073 828.354 414.515 840.018 422.07C876.104 445.441 819.443 517.071 819.443 517.071L768.549 582.069L477.461 354.143L655.978 126.156Z" fill="#2E7596"/>
<path d="M525.39 248.145L646.346 184.464L726.138 174.237C726.138 174.237 639.452 204.049 609.229 240.707C573.581 283.949 580.472 339.403 630.676 388.588C675.331 432.341 743.756 427.532 774.893 417.726C806.03 407.919 850.062 384.759 863.362 381.595C904.505 371.805 914.529 397.475 914.529 397.475L926.184 477.841L566.271 530.038L525.39 248.145Z" fill="#2B94BA"/>
<path d="M710 197.109C631.21 197.109 567.109 261.21 567.109 340C567.109 418.79 631.21 482.891 710 482.891C788.79 482.891 852.891 418.79 852.891 340C852.891 261.21 788.79 197.109 710 197.109ZM710 185C795.604 185 865 254.396 865 340C865 425.604 795.604 495 710 495C624.396 495 555 425.604 555 340C555 254.396 624.396 185 710 185Z" fill="#2B94BA"/>
<path d="M526.543 266.311C526.543 266.311 547.393 248.725 552.827 263.238C567.59 302.679 562.88 390.746 665.853 430.585C768.826 470.424 829.092 394.566 858.367 389.955C889.389 385.069 909.822 412.796 909.822 412.796L919.251 493.451L558.036 535.681L526.543 266.311Z" fill="#29B4DD"/>
</g>
</g>
<defs>
<clipPath id="clip0_36_29">
<rect width="310" height="310" fill="white" transform="translate(555 185)"/>
</clipPath>
</defs>
</svg>
